<svg width="675" height="213" viewBox="0 0 675 213" fill="none" xmlns="http://www.w3.org/2000/svg">
<path d="M644.88 107.969C644.647 115.44 639.487 121.733 632.457 122.555C630.123 122.825 627.76 122.47 625.609 121.527C623.52 125.817 619.594 128.929 614.795 129.49C614.443 129.531 614.112 129.537 613.771 129.552C612.474 141.113 596.608 151.802 576.122 154.197C569.416 155.017 562.624 154.797 555.986 153.545C554.033 154.774 551.843 155.579 549.558 155.907C547.274 156.235 544.946 156.08 542.726 155.451C538.095 162.734 530.725 167.856 521.945 168.882C513.53 169.866 505.502 166.882 499.401 161.346C492.232 176.52 478.459 187.535 461.616 189.503C450.836 190.763 440.431 188.118 431.588 182.624C428.73 189.375 422.807 194.389 415.473 195.246C408.08 196.11 401.112 192.553 396.776 186.543C393.971 188.078 390.898 189.063 387.723 189.444C377.928 190.589 368.708 185.873 362.973 177.901C356.391 188.76 342.833 197.123 326.423 199.041C313.094 200.599 300.619 197.582 291.644 191.543C287.777 196.987 281.961 200.758 275.138 201.555C266.492 202.566 258.328 198.55 253.104 191.652C250.628 195.325 246.811 197.903 242.291 198.432C237.682 198.97 233.294 197.269 230.015 194.162C225.403 199.133 219.286 202.514 212.287 203.332C206.75 203.961 201.152 202.94 196.195 200.4C194.001 205.627 189.441 209.482 183.773 210.145C177.436 210.886 171.517 207.42 168.338 201.809C163.601 207.779 156.88 211.894 149.047 212.81C139.541 213.921 130.492 210.087 124.085 203.206C122.747 205.102 121.027 206.697 119.034 207.888C117.042 209.079 114.821 209.839 112.517 210.12C110.212 210.4 107.874 210.195 105.654 209.518C103.434 208.84 101.381 207.705 99.6269 206.186C96.8393 208.248 93.5618 209.547 90.1181 209.957C83.0487 210.783 76.3592 207.747 71.797 202.422C70.7156 202.962 69.5492 203.312 68.3491 203.456C62.9414 204.089 57.9433 200.469 56.1766 195.064C55.2697 195.213 54.3436 195.35 53.4001 195.46C43.7887 196.583 35.2176 195.218 30.8082 192.3C29.1817 192.643 27.4868 192.92 25.737 193.124C12.2037 194.706 0.694833 191.381 0.0296686 185.69C-0.635496 179.999 9.79669 174.113 23.33 172.531C24.2665 172.421 25.1777 172.34 26.091 172.276C28.3948 167.561 37.5223 163.214 48.8376 161.891C50.2635 161.724 51.6616 161.625 53.0246 161.562C53.6976 155.779 57.8684 151.099 63.4275 150.449C63.6705 150.421 63.9127 150.417 64.1573 150.403C63.9531 140.626 70.5504 132.218 79.6477 131.155C80.4979 131.061 81.3542 131.036 82.2084 131.08C85.002 118.036 94.9776 107.786 107.944 106.27C112.709 105.726 117.534 106.41 121.959 108.258C124.495 100.831 130.651 95.2661 138.399 94.3604C140.136 94.1664 141.89 94.2157 143.613 94.5069C143.488 93.8084 143.346 93.112 143.264 92.4085C141.048 73.4471 153.334 56.4343 170.67 54.4081C175.101 53.8991 179.591 54.4085 183.795 55.8974C192.256 42.4013 205.874 32.9018 222.076 31.0081C233.856 29.6312 245.228 32.4877 254.927 38.4347C260.37 30.0405 268.919 24.1389 279.097 22.9493C288.357 21.867 297.214 24.8855 304.174 30.6357C306.917 23.7585 312.841 18.6523 320.216 17.7902C320.569 17.7491 320.953 17.7433 321.322 17.7216C324.949 8.32745 332.969 1.34332 342.999 0.170953C353.336 -1.03721 363.05 4.24491 368.685 13.0414C370.449 12.2311 372.33 11.7021 374.258 11.4737C381.43 10.6355 388.184 14.0103 392.465 19.7706C396.71 10.2863 405.13 3.34097 415.523 2.12623C427.676 0.70573 439.05 7.51591 444.91 18.4502C450.31 10.3926 458.654 4.74326 468.55 3.58653C487.463 1.37596 504.756 16.329 507.172 36.9998C507.554 40.3438 507.521 43.7223 507.074 47.0583C508.193 46.7332 509.336 46.4971 510.492 46.3521C518.569 45.4082 526.211 48.9644 531.316 55.1739C534.617 50.0212 539.851 46.4039 546.079 45.676C554.592 44.681 562.568 49.3533 566.8 56.9163C569.384 55.8714 572.094 55.1722 574.861 54.8367C591.443 52.8986 606.774 64.1627 611.931 80.8944C611.974 80.9571 612.02 81.0159 612.067 81.0817C614.205 78.8408 617.055 77.4112 620.131 77.0374C627.936 76.1251 635.074 82.2931 636.071 90.8295C636.086 90.9561 636.101 91.0792 636.115 91.2023C657.132 89.0737 674.164 90.9834 674.716 95.7071C675.203 99.9 662.464 104.951 644.88 107.969Z" fill="url(#paint0_linear_3652_3497)" fill-opacity="0.1" style="mix-blend-mode:screen"/>
<defs>
<linearGradient id="paint0_linear_3652_3497" x1="338.343" y1="199.869" x2="335.086" y2="5.72706" gradientUnits="userSpaceOnUse">
<stop offset="0.22"/>
<stop offset="0.29" stop-color="#0D0D0D"/>
<stop offset="0.42" stop-color="#303030"/>
<stop offset="0.59" stop-color="#686868"/>
<stop offset="0.8" stop-color="#B4B4B4"/>
<stop offset="1" stop-color="white"/>
</linearGradient>
</defs>
</svg>
